<svg xmlns="http://www.w3.org/2000/svg" fill="none" viewBox="0 0 64 64"><path fill="#FFFBCA" d="M48.265 36.115c-14.59-2.8-16.581-4.791-19.38-19.38a.9.9 0 0 0-1.77 0c-2.8 14.589-4.791 16.58-19.38 19.38a.9.9 0 0 0 0 1.77c14.589 2.799 16.58 4.79 19.38 19.38a.9.9 0 0 0 1.77 0c2.799-14.59 4.79-16.581 19.38-19.38a.9.9 0 0 0 0-1.77ZM59.133 12.557c-7.295-1.399-8.291-2.395-9.69-9.69a.45.45 0 0 0-.886 0c-1.399 7.295-2.395 8.291-9.69 9.69a.45.45 0 0 0 0 .886c7.295 1.399 8.291 2.395 9.69 9.69a.45.45 0 0 0 .886 0c1.399-7.295 2.395-8.291 9.69-9.69a.45.45 0 0 0 0-.886Z"/></svg>